<svg width="18" height="18" viewBox="0 0 27 27" fill="none" xmlns="http://www.w3.org/2000/svg">
    <path fill-rule="evenodd" clip-rule="evenodd"
          d="M14.4808 24.5241C17.5865 21.5103 22 15.8 22 10.2483C22 7.55172 20.1692 2 13.5 2C6.83077 2 5 7.55172 5 10.2483C5 15.8 9.57692 21.669 12.5192 24.5241C12.6827 24.6828 12.9769 25 13.5 25C13.9904 25 14.3173 24.6828 14.4808 24.5241ZM16.4423 10.2483C16.4423 8.66207 15.1346 7.3931 13.5 7.3931C11.8654 7.3931 10.5577 8.66207 10.5577 10.2483C10.5577 11.8345 11.8654 13.1034 13.5 13.1034C15.1346 13.1034 16.4423 11.8345 16.4423 10.2483Z"
          fill="white"/>
</svg>
