<svg width="24" height="24" viewBox="0 0 24 24" fill="none" xmlns="http://www.w3.org/2000/svg">
    <g clip-path="url(#clip0_62_2387)">
        <mask id="mask0_62_2387" style="mask-type:luminance" maskUnits="userSpaceOnUse" x="0" y="0" width="24"
              height="24">
            <path d="M24 0H0V24H24V0Z" fill="white"/>
        </mask>
        <g mask="url(#mask0_62_2387)">
            <path d="M12 0C18.6228 0 24 5.3772 24 12C24 18.6228 18.6228 24 12 24C5.3772 24 0 18.6228 0 12C0 5.3772 5.3772 0 12 0Z"
                  fill="#0A84FF"/>
        </g>
        <path d="M15.94 10.65C16.3467 10.65 16.7067 10.74 17.02 10.92C17.34 11.1 17.59 11.37 17.77 11.73C17.9567 12.09 18.05 12.5433 18.05 13.09C18.05 13.73 17.9367 14.2833 17.71 14.75C17.4833 15.2167 17.1733 15.6067 16.78 15.92C16.3933 16.24 15.95 16.4933 15.45 16.68C14.9567 16.8667 14.4367 17 13.89 17.08C13.35 17.1667 12.8133 17.21 12.28 17.21H11.84C10.8533 17.21 9.97 17.09 9.19 16.85C8.41 16.61 7.74667 16.2567 7.2 15.79C6.65333 15.3233 6.23667 14.7433 5.95 14.05C5.66333 13.3567 5.52 12.5567 5.52 11.65C5.52 11.1433 5.57333 10.6833 5.68 10.27C5.78667 9.85 5.94667 9.49 6.16 9.19C6.38 8.89 6.64667 8.66 6.96 8.5C7.28 8.34 7.65 8.26 8.07 8.26C8.49 8.26 8.83667 8.33333 9.11 8.48C9.38333 8.62667 9.58333 8.83333 9.71 9.1C9.84333 9.36667 9.91 9.67667 9.91 10.03C9.91 10.33 9.84667 10.6067 9.72 10.86C9.59333 11.1133 9.39333 11.3167 9.12 11.47C8.84667 11.6233 8.48667 11.7 8.04 11.7C7.72 11.7 7.40667 11.6367 7.1 11.51C6.79333 11.3767 6.52 11.1567 6.28 10.85L6.56 9.71C6.77333 10.0367 6.99 10.27 7.21 10.41C7.43667 10.55 7.67 10.62 7.91 10.62C8.10333 10.62 8.26667 10.5667 8.4 10.46C8.53333 10.3467 8.6 10.17 8.6 9.93C8.6 9.68333 8.54333 9.51667 8.43 9.43C8.32333 9.33667 8.19667 9.29 8.05 9.29C7.83 9.29 7.64667 9.36333 7.5 9.51C7.35333 9.65 7.23667 9.84 7.15 10.08C7.06333 10.3133 7.00333 10.57 6.97 10.85C6.94333 11.0033 6.92667 11.1533 6.92 11.3C6.91333 11.4467 6.91 11.58 6.91 11.7C6.91 12.3933 7.02 13.0133 7.24 13.56C7.46667 14.1067 7.79 14.57 8.21 14.95C8.63667 15.33 9.15667 15.6167 9.77 15.81C10.3833 16.01 11.08 16.11 11.86 16.11H12.34C12.9133 16.11 13.4533 16.05 13.96 15.93C14.4733 15.81 14.9233 15.6267 15.31 15.38C15.7033 15.14 16.01 14.8267 16.23 14.44C16.45 14.0533 16.56 13.5967 16.56 13.07C16.56 12.77 16.52 12.52 16.44 12.32C16.36 12.12 16.2467 11.97 16.1 11.87C15.96 11.77 15.7867 11.72 15.58 11.72C15.4133 11.72 15.28 11.74 15.18 11.78C15.08 11.82 14.9867 11.8667 14.9 11.92V10.88C15.0333 10.82 15.1833 10.7667 15.35 10.72C15.5167 10.6733 15.7133 10.65 15.94 10.65ZM10.44 14V8.38H16.34V9.45H14.9V14H13.41V9.45H11.93V14H10.44Z"
              fill="white"/>
    </g>
    <defs>
        <clipPath id="clip0_62_2387">
            <rect width="24" height="24" fill="white"/>
        </clipPath>
    </defs>
</svg>
