<svg width="22" height="22" viewBox="0 0 27 27" fill="none" xmlns="http://www.w3.org/2000/svg">
    <path fill-rule="evenodd" clip-rule="evenodd"
          d="M5.73077 9.09677V21.9677C5.73077 22.6452 6.14615 24 7.80769 24H18.5385C20.2 24 20.6154 22.6452 20.6154 21.9677V9.09677H5.73077ZM10.5769 20.4435V12.6532C10.5769 12.1856 10.1895 11.8065 9.71154 11.8065C9.2336 11.8065 8.84615 12.1856 8.84615 12.6532V20.4435C8.84615 20.9112 9.2336 21.2903 9.71154 21.2903C10.1895 21.2903 10.5769 20.9112 10.5769 20.4435ZM14.0385 20.4435V12.6532C14.0385 12.1856 13.651 11.8065 13.1731 11.8065C12.6951 11.8065 12.3077 12.1856 12.3077 12.6532V20.4435C12.3077 20.9112 12.6951 21.2903 13.1731 21.2903C13.651 21.2903 14.0385 20.9112 14.0385 20.4435ZM17.5 20.4435V12.6532C17.5 12.1856 17.1126 11.8065 16.6346 11.8065C16.1567 11.8065 15.7692 12.1856 15.7692 12.6532V20.4435C15.7692 20.9112 16.1567 21.2903 16.6346 21.2903C17.1126 21.2903 17.5 20.9112 17.5 20.4435Z"
          fill="white"/>
    <path d="M8.84615 6.3871V5.03226C8.84615 4.35484 9.26154 3 10.9231 3H15.0769C16.7385 3 17.1538 4.35484 17.1538 5.03226V6.3871H21.3077C21.69 6.3871 22 6.69039 22 7.06452C22 7.43864 21.69 7.74194 21.3077 7.74194H4.69231C4.30996 7.74194 4 7.43864 4 7.06452C4 6.69039 4.30996 6.3871 4.69231 6.3871H8.84615Z"
          fill="white"/>
</svg>
