<svg width="24" height="24" viewBox="0 0 24 24" fill="none" xmlns="http://www.w3.org/2000/svg">
    <g clip-path="url(#clip0_61_2312)">
        <mask id="mask0_61_2312" style="mask-type:luminance" maskUnits="userSpaceOnUse" x="0" y="0" width="24"
              height="24">
            <path d="M24 0H0V24H24V0Z" fill="white"/>
        </mask>
        <g mask="url(#mask0_61_2312)">
            <path d="M12 0C18.6228 0 24 5.3772 24 12C24 18.6228 18.6228 24 12 24C5.3772 24 0 18.6228 0 12C0 5.3772 5.3772 0 12 0Z"
                  fill="#27C181"/>
            <path d="M11.2781 18.4845C11.2781 18.9521 11.5654 19.2308 12.0084 19.2308C12.4514 19.2308 12.7384 18.9521 12.7384 18.4845V17.6725C14.6004 17.4675 16.2084 16.3845 16.2084 14.3665C16.2084 12.7588 15.0108 11.7331 12.9024 11.2491L11.8361 11.0031C10.7451 10.7571 10.0068 10.2895 10.0068 9.5348C10.0068 8.65714 10.7614 8.09914 12.0164 8.09914C13.1158 8.09914 13.7558 8.5178 14.1248 9.37914C14.3298 9.7728 14.5841 10.0025 15.0598 10.0025C15.5848 10.0025 15.9458 9.71514 15.9458 9.23947C15.9458 9.08347 15.9131 8.93614 15.8721 8.78014C15.5111 7.57414 14.3461 6.7048 12.7384 6.5078V5.67114C12.7384 5.20347 12.4514 4.9248 12.0084 4.9248C11.5654 4.9248 11.2781 5.20347 11.2781 5.67114V6.5078C9.44077 6.73747 8.01344 7.85314 8.01344 9.70714C8.01344 11.2575 9.2521 12.3238 11.1224 12.7505L12.2381 13.0128C13.4931 13.3081 14.2478 13.7348 14.2478 14.5635C14.2478 15.5398 13.4028 16.0645 12.0821 16.0645C10.8351 16.0645 10.0641 15.6051 9.7361 14.7685C9.56377 14.3828 9.2931 14.1041 8.81744 14.1041C8.25144 14.1041 7.89844 14.4488 7.89844 14.9655C7.89844 15.1048 7.9231 15.2605 7.98044 15.4165C8.3331 16.5568 9.5391 17.4508 11.2781 17.6558V18.4845Z"
                  fill="white"/>
        </g>
    </g>
    <defs>
        <clipPath id="clip0_61_2312">
            <rect width="24" height="24" fill="white"/>
        </clipPath>
    </defs>
</svg>
